<?xml version="1.0" standalone="no"?>
<!DOCTYPE svg PUBLIC "-//W3C//DTD SVG 20010904//EN"
 "http://www.w3.org/TR/2001/REC-SVG-20010904/DTD/svg10.dtd">
<svg version="1.0" xmlns="http://www.w3.org/2000/svg"
 width="128.000000pt" height="128.000000pt" viewBox="0 0 128.000000 128.000000"
 preserveAspectRatio="xMidYMid meet">
<metadata>
Created by potrace 1.16, written by Peter Selinger 2001-2019
</metadata>
<g transform="translate(0.000000,128.000000) scale(0.100000,-0.100000)"
fill="#000000" stroke="none">
<path d="M272 1189 c-66 -11 -102 -30 -135 -68 -50 -60 -52 -78 -52 -481 0
-420 3 -440 71 -499 60 -53 84 -56 494 -56 361 0 377 1 421 21 60 28 94 66
111 123 19 66 19 757 0 821 -17 55 -74 113 -127 131 -49 15 -702 22 -783 8z
m788 -74 c19 -12 43 -36 55 -55 19 -34 20 -51 20 -420 0 -369 -1 -386 -20
-420 -12 -19 -36 -43 -55 -55 -34 -19 -51 -20 -420 -20 -369 0 -386 1 -420 20
-19 12 -43 36 -55 55 -19 34 -20 51 -20 420 0 350 2 388 18 417 20 38 54 62
100 74 17 4 196 7 397 6 347 -2 367 -3 400 -22z"/>
<path d="M588 734 c-31 -17 -58 -61 -58 -97 0 -13 10 -39 23 -58 43 -65 137
-62 178 5 23 38 24 67 4 106 -28 54 -94 74 -147 44z"/>
</g>
</svg>
