<?xml version="1.0" standalone="no"?>
<!DOCTYPE svg PUBLIC "-//W3C//DTD SVG 20010904//EN"
 "http://www.w3.org/TR/2001/REC-SVG-20010904/DTD/svg10.dtd">
<svg version="1.0" xmlns="http://www.w3.org/2000/svg"
 width="128.000000pt" height="128.000000pt" viewBox="0 0 128.000000 128.000000"
 preserveAspectRatio="xMidYMid meet">
<metadata>
Created by potrace 1.16, written by Peter Selinger 2001-2019
</metadata>
<g transform="translate(0.000000,128.000000) scale(0.100000,-0.100000)"
fill="#000000" stroke="none">
<path d="M281 1189 c-80 -14 -134 -49 -163 -106 -23 -47 -23 -53 -26 -413 -4
-414 0 -450 55 -510 65 -73 81 -75 493 -75 402 0 425 3 484 58 63 60 68 95 64
514 -3 350 -4 370 -24 413 -25 54 -55 83 -109 107 -35 15 -80 18 -380 19 -187
2 -365 -2 -394 -7z m729 -60 c54 -12 97 -50 110 -98 13 -47 13 -735 0 -782
-13 -45 -54 -84 -105 -98 -54 -15 -696 -15 -750 0 -51 14 -92 53 -105 98 -13
47 -13 735 0 782 13 46 56 86 105 98 56 13 689 13 745 0z"/>
<path d="M792 940 c-81 -50 -59 -178 35 -196 64 -12 133 42 133 104 0 36 -27
80 -60 97 -39 20 -69 19 -108 -5z"/>
<path d="M385 531 c-54 -23 -79 -95 -51 -149 17 -34 61 -62 96 -62 54 0 110
57 110 112 0 13 -9 38 -20 56 -28 46 -83 64 -135 43z"/>
</g>
</svg>
