<?xml version="1.0" standalone="no"?>
<!DOCTYPE svg PUBLIC "-//W3C//DTD SVG 20010904//EN"
 "http://www.w3.org/TR/2001/REC-SVG-20010904/DTD/svg10.dtd">
<svg version="1.0" xmlns="http://www.w3.org/2000/svg"
 width="128.000000pt" height="128.000000pt" viewBox="0 0 128.000000 128.000000"
 preserveAspectRatio="xMidYMid meet">
<metadata>
Created by potrace 1.16, written by Peter Selinger 2001-2019
</metadata>
<g transform="translate(0.000000,128.000000) scale(0.100000,-0.100000)"
fill="#000000" stroke="none">
<path d="M222 1171 c-64 -22 -85 -40 -114 -100 -22 -45 -23 -55 -26 -398 -4
-418 0 -451 71 -519 63 -60 91 -64 496 -64 437 0 468 7 523 118 23 47 23 49
23 417 0 425 -2 441 -70 504 -62 57 -93 61 -498 61 -314 -1 -358 -3 -405 -19z
m809 -51 c48 -13 86 -56 98 -110 14 -60 14 -681 0 -740 -6 -25 -20 -56 -32
-69 -46 -49 -61 -51 -449 -51 -208 0 -378 4 -399 10 -45 13 -84 54 -98 105
-15 54 -15 696 0 750 13 47 42 82 84 101 37 16 738 20 796 4z"/>
<path d="M378 944 c-31 -16 -58 -61 -58 -96 0 -33 36 -87 66 -98 40 -15 68
-12 105 13 112 75 5 246 -113 181z"/>
<path d="M794 941 c-64 -39 -70 -128 -12 -176 27 -23 39 -26 76 -22 77 9 120
78 91 148 -14 36 -62 69 -99 69 -14 0 -39 -9 -56 -19z"/>
<path d="M378 524 c-31 -17 -58 -61 -58 -97 0 -13 10 -39 23 -58 43 -65 137
-62 178 5 23 38 24 67 4 106 -28 54 -94 74 -147 44z"/>
<path d="M792 520 c-81 -50 -59 -178 35 -196 64 -12 133 42 133 104 0 56 -56
112 -112 112 -13 0 -38 -9 -56 -20z"/>
</g>
</svg>
