<?xml version="1.0" standalone="no"?>
<!DOCTYPE svg PUBLIC "-//W3C//DTD SVG 20010904//EN"
 "http://www.w3.org/TR/2001/REC-SVG-20010904/DTD/svg10.dtd">
<svg version="1.0" xmlns="http://www.w3.org/2000/svg"
 width="128.000000pt" height="128.000000pt" viewBox="0 0 128.000000 128.000000"
 preserveAspectRatio="xMidYMid meet">
<metadata>
Created by potrace 1.16, written by Peter Selinger 2001-2019
</metadata>
<g transform="translate(0.000000,128.000000) scale(0.100000,-0.100000)"
fill="#000000" stroke="none">
<path d="M257 1179 c-86 -20 -137 -65 -159 -138 -19 -67 -19 -736 1 -803 19
-66 80 -122 150 -137 33 -7 182 -11 400 -11 437 0 468 7 523 118 23 47 23 49
23 417 0 420 -2 435 -69 501 -31 32 -54 44 -94 53 -64 13 -718 14 -775 0z
m774 -59 c48 -13 86 -56 98 -110 14 -59 14 -681 0 -740 -12 -54 -50 -97 -98
-110 -47 -13 -735 -13 -782 0 -45 13 -84 54 -98 105 -15 54 -15 696 0 750 13
49 53 92 94 104 42 13 741 13 786 1z"/>
<path d="M378 945 c-31 -17 -58 -63 -58 -97 0 -34 36 -87 68 -99 39 -15 92 -4
121 26 37 37 37 114 0 151 -32 32 -93 41 -131 19z"/>
<path d="M798 944 c-30 -16 -58 -61 -58 -94 0 -29 26 -76 52 -94 35 -25 91
-20 127 10 57 47 50 137 -13 175 -37 23 -71 24 -108 3z"/>
<path d="M588 734 c-31 -17 -58 -61 -58 -97 0 -13 10 -39 23 -58 43 -65 137
-62 178 5 23 38 24 67 4 106 -28 54 -94 74 -147 44z"/>
<path d="M378 524 c-30 -16 -58 -61 -58 -94 0 -53 57 -110 110 -110 54 0 110
57 110 112 0 13 -9 38 -20 56 -31 51 -89 65 -142 36z"/>
<path d="M798 524 c-31 -17 -58 -61 -58 -97 0 -13 10 -39 23 -58 43 -65 137
-62 178 5 23 38 24 67 4 106 -28 54 -94 74 -147 44z"/>
</g>
</svg>
