<?xml version="1.0" standalone="no"?>
<!DOCTYPE svg PUBLIC "-//W3C//DTD SVG 20010904//EN"
 "http://www.w3.org/TR/2001/REC-SVG-20010904/DTD/svg10.dtd">
<svg version="1.0" xmlns="http://www.w3.org/2000/svg"
 width="128.000000pt" height="128.000000pt" viewBox="0 0 128.000000 128.000000"
 preserveAspectRatio="xMidYMid meet">
<metadata>
Created by potrace 1.16, written by Peter Selinger 2001-2019
</metadata>
<g transform="translate(0.000000,128.000000) scale(0.100000,-0.100000)"
fill="#000000" stroke="none">
<path d="M272 1189 c-66 -11 -102 -30 -135 -68 -50 -60 -52 -78 -52 -481 0
-420 3 -440 71 -499 60 -53 84 -56 494 -56 361 0 377 1 421 21 60 28 94 66
111 123 19 66 19 757 0 821 -17 55 -74 113 -127 131 -49 15 -702 22 -783 8z
m788 -74 c19 -12 43 -36 55 -55 19 -34 20 -51 20 -420 0 -369 -1 -386 -20
-420 -12 -19 -36 -43 -55 -55 -34 -19 -51 -20 -420 -20 -369 0 -386 1 -420 20
-19 12 -43 36 -55 55 -19 34 -20 51 -20 420 0 350 2 388 18 417 20 38 54 62
100 74 17 4 196 7 397 6 347 -2 367 -3 400 -22z"/>
<path d="M395 998 c-62 -34 -75 -116 -26 -170 25 -28 36 -33 76 -33 40 0 51 5
76 33 31 35 39 94 19 133 -22 41 -101 62 -145 37z"/>
<path d="M784 976 c-56 -56 -44 -135 26 -171 37 -19 54 -19 95 1 102 48 66
204 -47 204 -32 0 -47 -7 -74 -34z"/>
<path d="M404 740 c-34 -13 -64 -59 -64 -97 0 -113 126 -154 197 -63 7 8 13
36 13 61 0 41 -4 51 -35 78 -36 32 -70 38 -111 21z"/>
<path d="M814 740 c-36 -14 -64 -59 -64 -102 0 -54 51 -108 102 -108 48 0 94
32 108 74 30 91 -58 172 -146 136z"/>
<path d="M404 476 c-43 -19 -64 -53 -64 -104 0 -36 5 -49 31 -73 69 -65 179
-20 179 73 0 52 -21 85 -66 104 -40 17 -41 17 -80 0z"/>
<path d="M814 476 c-17 -8 -39 -24 -48 -37 -33 -48 -12 -134 39 -157 65 -30
133 -2 155 62 14 43 5 77 -28 109 -34 32 -78 40 -118 23z"/>
</g>
</svg>
